<svg version="1" xmlns="http://www.w3.org/2000/svg" width="933.333" height="933.333" viewBox="0 0 700.000000 700.000000"><path d="M203.5 88c-4.4.9-5.1 1.4-38.5 23.8-16.8 11.3-47.6 32-68.5 46C47 191 49.6 189 46.4 195.7l-2.7 5.5v196.7c0 195.1 0 196.6 2 201.2 1.1 2.5 3.7 6.2 5.8 8.2 3.4 3.3 5.3 4.1 12 5.1 3.4.5 9.4-2.2 18.4-8.2 4.7-3.2 28-18.8 51.6-34.7 23.7-15.9 49.8-33.5 58.2-39.1l15.1-10.2 24.9 16.7c68.4 46 107.7 72.2 110.4 73.7 3.7 1.8 11.8 2.1 15 .4 2.5-1.3 40.9-26.9 100.8-67.1l35.3-23.7 21.2 14.2c23.1 15.6 95.8 64.4 104.7 70.4 11.3 7.5 14.4 8.6 21 7.1 7.4-1.7 13.7-8.6 15.5-17 .7-3.3.6-390.7-.1-394.3-.8-3.8-3-7.9-5.7-10.9-1.3-1.3-20.7-14.7-43.3-29.9-22.5-15.1-54.8-36.7-71.6-48.1-16.9-11.3-32.1-21.3-33.9-22.2-3.8-1.9-11.9-2.2-15.2-.4-2.3 1.2-19.1 12.3-94.2 62.8-36.3 24.3-42.2 27.9-43.5 26.7-.9-.7-25.7-17.4-55.1-37.1-29.4-19.8-58.4-39.2-64.5-43.3-6-4.1-11.9-7.9-13-8.5-3-1.6-8.6-2.4-12-1.7zm45 77.3c18.5 12.4 78.7 52.8 79.3 53.3.5.4.5 147.5-.1 148-.6.6-10.4-3.5-16-6.8-2.6-1.5-5.1-2.8-5.5-2.8-.4 0-3.3 4-6.4 9l-5.7 8.9 3.2 2c7.7 4.6 24.3 11.9 25.1 11 .2-.2 1.5-3.8 2.9-7.9l2.5-7.5.2 9.5c.3 22 .1 166.2-.2 166.5-.1.1-22.6-14.6-49.8-32.9l-49.5-33.1-.1-83.8c0-57.4.3-83.4 1-82.7 2 2 3.5.9 9.5-7.5l6.1-8.5-6.9-4.5c-3.8-2.5-7.4-4.5-8-4.5-.6 0-1.2-.3-1.3-.8 0-.4-.2-31.6-.3-69.4-.1-49.1.1-68.5.9-68.1.6.4 9.2 6 19.1 12.6zm223 67.7c0 44.6-.3 81-.6 81s-1.6-1.1-2.9-2.5c-1.3-1.4-2.8-2.5-3.4-2.5-1.5 0-18.9 19.7-18.4 20.9.2.5 3.7 3.9 7.8 7.6l7.5 6.6 5.1-5.6 5-5.6v74.7l-.1 74.7-49.5 33.3c-27.2 18.2-49.6 33.1-49.8 32.9-.2-.2-.3-60.4-.2-135.7v-18.6l6.1-.7 6-.7-.7-4.2c-.3-2.2-.8-5.5-1-7.1-.2-1.7-.6-3.9-.8-5-.3-1.1-.5-2.7-.5-3.6-.1-1.3-1-1.5-4.6-1.2-3.9.4-4.5.2-4.6-1.4 0-1-.1-35.5-.1-76.6-.1-48 .2-75.1.9-75.5 25.8-17.3 68.9-46.3 81.3-54.8 9.1-6.2 16.7-11.3 17-11.3.3-.1.5 36.4.5 80.9zm-287 84.9v165L167 495.1c-9.6 6.7-23.1 16.1-30 20.9-6.9 4.7-20.7 14.4-30.7 21.3-10 7-18.3 12.7-18.5 12.7-.2 0-.3-74.3-.3-165V219.9l36-25c19.8-13.8 41.4-28.8 48-33.4 6.6-4.7 12.2-8.5 12.5-8.5.3 0 .6 74.2.5 164.9zm379.3-132.5c26 17.8 47.5 32.6 47.9 33 .7.6 1.2 328.4.6 329.8-.2.4-2.9-1.1-6.1-3.3-3.1-2.1-6.4-4.4-7.2-4.9-.8-.6-12.1-8.3-25-17.1s-31.4-21.4-41-27.9l-17.5-11.9v-93.6c0-81.9.2-93.7 1.5-94.5.8-.5 4.1-1.7 7.3-2.7 6.5-1.9 6.5-1.9 4.1-12.5-.9-3.8-1.8-7.7-1.9-8.7-.2-.9-.4-1.7-.4-1.8-.1 0-2.5.5-5.3 1.3-2.9.7-5.3 1.4-5.4 1.4-.1 0-.1-26.8-.1-59.5s.2-59.5.6-59.5c.3 0 21.9 14.6 47.9 32.4z"/><path d="M261.4 324.3c-2.7 2.3-6.4 5.6-8.2 7.3l-3.4 3 5.9 6.9c7.1 8.4 12.8 14.5 13.7 14.5.8 0 14.6-14.2 14.6-15.1 0-.3-1-1.6-2.2-2.9-1.3-1.4-5.3-5.9-8.9-10.1l-6.6-7.7-4.9 4.1zM419.5 354.6c-3.8 2.9-8.6 6.1-10.7 7.1-2.1 1-3.7 2.1-3.5 2.4 2.5 6 9.2 18.9 9.8 18.9 1.5 0 11.5-6.2 18.6-11.7l7.2-5.4-2.8-3.2c-1.6-1.8-4.9-5.5-7.3-8.3l-4.5-5.1-6.8 5.3zM165.1 281.2c-5.8 2.2-19.8 11.3-21.4 13.9-.8 1.3-.4 2.3 1.9 4.7 1.6 1.6 4.8 5 7.2 7.6l4.3 4.6 2.7-1.8c2.6-1.8 10.2-5.5 14.9-7.3 1.3-.5 2.3-1.7 2.3-2.7 0-1.5-5.7-20.3-6.3-20.8-.1-.1-2.6.7-5.6 1.8zM122.6 323c-3.3 6.3-9 21-8.3 21.6 1.2 1 20.2 6.3 20.7 5.7.4-.4 1.4-3.3 2.4-6.3.9-3 2.9-8 4.5-11l2.8-5.5-8.5-5.7c-4.6-3.2-8.8-5.8-9.2-5.8-.4 0-2.4 3.2-4.4 7zM549.6 262.6l-7.8 7.6 7.1 7.2 7.1 7.2-7 6.9-7 7 7.7 7.7 7.8 7.8 7-7 7.1-7 6.9 7 7 7 7.7-7.7 7.8-7.8-7-7-7-7 7-7 7.1-7.1-7.8-7.8-7.7-7.7-7 7-7.1 7.1-7-7-7.1-7.1-7.8 7.7z"/></svg>